<?xml version='1.0' encoding='iso-8859-1'?>
<svg version="1.1" xmlns="http://www.w3.org/2000/svg" viewBox="0 0 463 463" xmlns:xlink="http://www.w3.org/1999/xlink" enable-background="new 0 0 463 463">
  <g>
    <path d="M111.5,211c43.836,0,79.5-35.663,79.5-79.5c0-12.42-2.786-24.318-8.281-35.365c-1.844-3.709-6.346-5.222-10.056-3.375   c-3.708,1.845-5.22,6.347-3.375,10.055c4.454,8.954,6.712,18.604,6.712,28.686c0,35.565-28.935,64.5-64.5,64.5S47,167.065,47,131.5   S75.935,67,111.5,67c12.831,0,25.223,3.756,35.836,10.862c3.442,2.303,8.101,1.382,10.405-2.06   c2.305-3.442,1.383-8.101-2.059-10.405C142.59,56.633,127.313,52,111.5,52C67.664,52,32,87.663,32,131.5S67.664,211,111.5,211z"/>
    <path d="m104.991,99.65c4.252-0.863 8.767-0.863 13.019,0 0.503,0.102 1.005,0.151 1.499,0.151 3.494-0.001 6.621-2.454 7.342-6.011 0.824-4.06-1.799-8.018-5.859-8.842-6.212-1.26-12.771-1.26-18.983,0-4.06,0.824-6.683,4.782-5.859,8.842 0.823,4.061 4.783,6.679 8.841,5.86z"/>
    <path d="m127.5,175.675c1.002,0 2.021-0.202 2.998-0.629 17.314-7.562 28.502-24.654 28.502-43.546 0-6.607-1.333-13.004-3.961-19.014-1.66-3.796-6.082-5.527-9.877-3.866-3.795,1.659-5.526,6.081-3.866,9.876 1.794,4.104 2.704,8.479 2.704,13.004 0,12.928-7.656,24.625-19.506,29.8-3.796,1.658-5.529,6.079-3.871,9.875 1.231,2.818 3.986,4.5 6.877,4.5z"/>
    <path d="m111.5,146c7.995,0 14.5-6.505 14.5-14.5s-6.505-14.5-14.5-14.5-14.5,6.505-14.5,14.5 6.505,14.5 14.5,14.5zm0-15c0.276,0 0.5,0.225 0.5,0.5s-0.224,0.5-0.5,0.5-0.5-0.225-0.5-0.5 0.224-0.5 0.5-0.5z"/>
    <path d="m111.5,260c-17.369,0-31.5,14.131-31.5,31.5s14.131,31.5 31.5,31.5 31.5-14.131 31.5-31.5-14.131-31.5-31.5-31.5zm0,48c-9.098,0-16.5-7.402-16.5-16.5s7.402-16.5 16.5-16.5 16.5,7.402 16.5,16.5-7.402,16.5-16.5,16.5z"/>
    <path d="M431.5,180h-176c-14.785,0-27.216,10.241-30.591,24H207v-15.006c10.151-16.799,16-36.476,16-57.494   C223,70.019,172.981,20,111.5,20S0,70.019,0,131.5c0,21.019,5.849,40.696,16,57.494V411.5c0,17.369,14.131,31.5,31.5,31.5h128   c17.369,0,31.5-14.131,31.5-31.5V347h17.909c3.374,13.759,15.806,24,30.591,24h176c17.369,0,31.5-14.131,31.5-31.5v-128   C463,194.131,448.869,180,431.5,180z M111.5,35c53.21,0,96.5,43.29,96.5,96.5S164.71,228,111.5,228S15,184.71,15,131.5   S58.29,35,111.5,35z M192,411.5c0,9.099-7.402,16.5-16.5,16.5h-128c-9.098,0-16.5-7.401-16.5-16.5V208.57   C51.31,229.775,79.889,243,111.5,243s60.19-13.225,80.5-34.43V411.5z M207,219h17v113h-17V219z M448,339.5   c0,9.098-7.402,16.5-16.5,16.5h-176c-9.098,0-16.5-7.402-16.5-16.5v-128c0-9.098,7.402-16.5,16.5-16.5h176   c9.098,0,16.5,7.402,16.5,16.5V339.5z"/>
    <path d="m423.5,212h-16c-4.142,0-7.5,3.357-7.5,7.5s3.358,7.5 7.5,7.5h16c4.142,0 7.5-3.357 7.5-7.5s-3.358-7.5-7.5-7.5z"/>
    <path d="m375.5,212h-88c-4.142,0-7.5,3.357-7.5,7.5s3.358,7.5 7.5,7.5h88c4.142,0 7.5-3.357 7.5-7.5s-3.358-7.5-7.5-7.5z"/>
  </g>
</svg>
