<?xml version='1.0' encoding='iso-8859-1'?>
<svg version="1.1" xmlns="http://www.w3.org/2000/svg" viewBox="0 0 463.008 463.008" xmlns:xlink="http://www.w3.org/1999/xlink" enable-background="new 0 0 463.008 463.008">
  <g>
    <path d="m393.108,178.524c-1.423-1.601-3.463-2.517-5.604-2.517h-32.145c-0.096-14.686 0.951-29.266 3.126-43.671 0.134-0.512 0.213-1.038 0.236-1.57 2.702-17.232 7.01-34.206 12.928-50.793l3.139-8.799c6.209-2.475 11.18-7.531 13.468-13.942l5.378-15.071c4.354-12.204-2.033-25.676-14.237-30.029l-30.14-10.754c-5.913-2.107-12.292-1.789-17.963,0.899-5.673,2.689-9.958,7.426-12.066,13.338l-5.377,15.069c-2.36,6.614-1.56,13.598 1.606,19.303l-3.144,8.816c-5.918,16.587-13.328,32.455-22.144,47.505-0.319,0.427-0.59,0.884-0.811,1.365-8.141,13.719-17.451,26.756-27.91,39.005l-1.015,1.189c-0.003,0.003-0.005,0.006-0.008,0.009l-24.018,28.131h-152.903c-2.142,0-4.182,0.916-5.604,2.517-1.423,1.6-2.095,3.732-1.844,5.859l14.943,127.014c-5.073,0.396-10.238,0.61-15.495,0.61-4.143,0-7.5,3.357-7.5,7.5s3.357,7.5 7.5,7.5c5.923,0 11.672-0.251 17.249-0.702l.866,7.359c0.729,6.201 4.301,11.444 9.317,14.492-1.866,3.367-2.932,7.236-2.932,11.351 0,6.177 2.399,11.801 6.31,16-3.911,4.199-6.31,9.823-6.31,16 0,6.696 2.82,12.742 7.328,17.027-2.676,3.897-3.888,8.657-3.329,13.404l2.39,20.314c1.392,11.832 11.425,20.755 23.339,20.755h211.545c11.914,0 21.947-8.923 23.338-20.754l2.391-20.316c0.559-4.746-0.653-9.506-3.329-13.403 4.509-4.284 7.328-10.331 7.328-17.027 0-6.177-2.399-11.801-6.31-16 3.911-4.199 6.31-9.823 6.31-16 0-4.115-1.066-7.983-2.932-11.351 5.017-3.048 8.588-8.291 9.317-14.492l17.563-149.281c0.25-2.126-0.422-4.259-1.845-5.859zm-107.806-2.516l-10.431-22.003c7.366-8.813 14.181-17.999 20.431-27.531l11.8,24.891c1.283,2.705 3.975,4.289 6.782,4.289 1.077,0 2.171-0.233 3.208-0.725l24.891-11.8c-1.148,10.885-1.692,21.854-1.624,32.878h-55.057zm41.137-112.163l1.181-3.309c0.156,0.059 0.309,0.124 0.467,0.18l7.534,2.688c3.898,1.393 8.191-0.641 9.584-4.543 1.393-3.901-0.642-8.192-4.543-9.584l-7.534-2.688c-2.139-0.764-3.853-2.313-4.825-4.365-0.973-2.051-1.088-4.358-0.325-6.497l5.378-15.07c0.763-2.138 2.313-3.852 4.363-4.823 2.051-0.974 4.357-1.09 6.498-0.326l30.139,10.753c4.414,1.575 6.725,6.448 5.15,10.862l-5.377,15.07c-1.018,2.85-3.501,4.961-6.482,5.508-2.735,0.503-4.843,2.432-5.711,4.877-0.015,0.039-0.033,0.074-0.047,0.114l-4.367,12.244c-5.884,16.491-10.255,33.347-13.123,50.449l-26.955,12.779-12.779-26.956c8.605-15.056 15.891-30.872 21.774-47.363zm-62.226,102.698l4.488,9.466h-12.569l8.081-9.466zm98.28,165.371c-0.275,2.334-2.254,4.094-4.604,4.094l-10.386,.001h-15.996c-4.143,0-7.5,3.357-7.5,7.5s3.357,7.5 7.5,7.5h15.997c4.687,0 8.5,3.813 8.5,8.5s-3.813,8.5-8.5,8.5h-15.997c-4.143,0-7.5,3.357-7.5,7.5s3.357,7.5 7.5,7.5h15.997c4.687,0 8.5,3.813 8.5,8.5s-3.813,8.5-8.5,8.5h-15.997c-4.143,0-7.5,3.357-7.5,7.5s3.357,7.5 7.5,7.5h15.997c1.811,0 2.947,0.975 3.464,1.555 0.517,0.581 1.352,1.824 1.141,3.622l-2.391,20.316c-0.504,4.28-4.132,7.507-8.441,7.507h-211.546c-4.31,0-7.938-3.227-8.441-7.508l-2.391-20.314c-0.211-1.799 0.624-3.042 1.141-3.623 0.517-0.58 1.653-1.555 3.464-1.555h176.001c4.143,0 7.5-3.357 7.5-7.5s-3.357-7.5-7.5-7.5h-176.001c-4.687,0-8.5-3.813-8.5-8.5s3.813-8.5 8.5-8.5h127.997c4.143,0 7.5-3.357 7.5-7.5s-3.357-7.5-7.5-7.5h-127.997c-4.687,0-8.5-3.813-8.5-8.5s3.813-8.5 8.5-8.5h176.001c4.143,0 7.5-3.357 7.5-7.5s-3.357-7.5-7.5-7.5h-176l-10.387-.001c-2.35,0-4.328-1.76-4.604-4.094l-.863-7.336c28.959-4.401 52.221-14.019 68.114-22.442 24.632-13.054 44.825-30.164 56.092-47.411 1.189,0.186 2.406,0.284 3.647,0.284 12.958,0 23.5-10.542 23.5-23.5s-10.542-23.5-23.5-23.5-23.5,10.542-23.5,23.5c0,6.273 2.475,11.975 6.495,16.194-16.298,23.738-57.858,53.515-112.6,61.969l-13.96-118.663h287.131l-16.577,140.905zm-135.489-100.405c0-4.687 3.813-8.5 8.5-8.5s8.5,3.813 8.5,8.5-3.813,8.5-8.5,8.5-8.5-3.814-8.5-8.5z"/>
    <path d="m299.505,368.008h-15.998c-4.143,0-7.5,3.357-7.5,7.5s3.357,7.5 7.5,7.5h15.998c4.143,0 7.5-3.357 7.5-7.5s-3.358-7.5-7.5-7.5z"/>
    <path d="m339.349,318.956c0.298,0.035 0.593,0.053 0.886,0.053 3.75,0 6.99-2.809 7.438-6.625l5.646-48.001c0.484-4.113-2.458-7.841-6.572-8.324-4.114-0.489-7.842,2.458-8.324,6.572l-5.646,48.001c-0.485,4.113 2.457,7.84 6.572,8.324z"/>
    <path d="m348.76,238.957c0.297,0.035 0.593,0.053 0.886,0.053 3.75,0 6.99-2.809 7.438-6.625l1.883-16c0.484-4.114-2.458-7.842-6.571-8.325-4.116-0.479-7.843,2.458-8.325,6.571l-1.883,16.001c-0.485,4.114 2.457,7.841 6.572,8.325z"/>
  </g>
</svg>
