<?xml version='1.0' encoding='iso-8859-1'?>
<svg version="1.1" xmlns="http://www.w3.org/2000/svg" viewBox="0 0 463 463" xmlns:xlink="http://www.w3.org/1999/xlink" enable-background="new 0 0 463 463">
  <g>
    <path d="m392.382,354.469l-77.969-17.993c-11.456-7.354-11.434-16.573-11.411-24.02l.001-.347c11.206-11.551 20.011-25.782 25.524-41.726 2.29,0.408 4.619,0.617 6.973,0.617 21.78,0 39.5-17.72 39.5-39.5 0-1.193-0.063-2.387-0.194-3.604 14.369-6.07 24.194-20.375 24.194-36.396 0-10.652-4.357-20.687-11.813-28 7.456-7.313 11.813-17.348 11.813-28 0-17.95-12.037-33.143-28.462-37.931 2.901-5.536 4.462-11.715 4.462-18.069 0-21.78-17.72-39.5-39.5-39.5-3.032,0-6.059,0.368-9.021,1.087-3.072-18.742-19.381-33.087-38.979-33.087-8.807,0-17.297,3.004-24.15,8.33-7.297-10.065-19.069-16.33-31.85-16.33s-24.553,6.265-31.85,16.33c-6.853-5.326-15.343-8.33-24.15-8.33-19.598,0-35.907,14.345-38.979,33.087-2.962-0.719-5.989-1.087-9.021-1.087-21.78,0-39.5,17.72-39.5,39.5 0,6.354 1.561,12.533 4.462,18.069-16.425,4.788-28.462,19.981-28.462,37.931 0,10.652 4.357,20.687 11.813,28-7.456,7.313-11.813,17.348-11.813,28 0,16.021 9.825,30.326 24.194,36.396-0.131,1.217-0.194,2.411-0.194,3.604 0,21.78 17.72,39.5 39.5,39.5 2.354,0 4.683-0.208 6.973-0.616 5.514,15.945 14.32,30.178 25.528,41.729l.001,.343c0.022,7.446 0.045,16.664-11.409,24.018l-77.975,17.995c-18.027,4.16-30.618,19.986-30.618,38.487v46.613c0,12.92 11.526,23.431 25.693,23.431h331.613c14.168,0 25.694-10.511 25.694-23.431v-46.613c0-18.501-12.591-34.327-30.618-38.487zm-249.382-122.9v-64.069c0-13.51 10.991-24.5 24.5-24.5h72.5v0.5c0,9.098-7.402,16.5-16.5,16.5-4.142,0-7.5,3.357-7.5,7.5s3.358,7.5 7.5,7.5c17.369,0 31.5-14.131 31.5-31.5v-8c0-1.988-0.79-3.896-2.197-5.303-1.406-1.407-3.313-2.197-5.303-2.197h-80c-21.78,0-39.5,17.72-39.5,39.5v64.069c0,8.32 0.857,16.427 2.469,24.231-0.981,0.119-1.969,0.2-2.969,0.2-13.509,0-24.5-10.99-24.5-24.5 0-1.985 0.339-4.102 1.066-6.66 0.569-1.999 0.282-4.144-0.791-5.924-1.073-1.779-2.837-3.034-4.871-3.465-11.243-2.379-19.404-12.452-19.404-23.951 0-8.881 4.94-17.085 12.892-21.412 2.413-1.313 3.916-3.841 3.916-6.588s-1.502-5.274-3.916-6.588c-7.952-4.327-12.892-12.531-12.892-21.412 0-13.51 10.991-24.5 24.5-24.5 0.314,0 0.84,0.071 1.396,0.146 0.417,0.057 0.833,0.112 1.253,0.158 3.273,0.347 6.405-1.472 7.704-4.503 1.298-3.031 0.465-6.555-2.055-8.683-5.591-4.722-8.798-11.508-8.798-18.618 0-13.51 10.991-24.5 24.5-24.5 4.391,0 8.627,1.216 12.592,3.613 2.486,1.503 5.616,1.435 8.035-0.174 2.419-1.609 3.69-4.47 3.265-7.344l-.041-.272c-0.188-1.267-0.351-2.362-0.351-3.323 0-13.51 10.991-24.5 24.5-24.5 7.926,0 15.162,3.742 19.852,10.268 1.63,2.268 4.39,3.444 7.15,3.047 2.765-0.395 5.081-2.293 6.011-4.926 3.465-9.803 12.702-16.389 22.987-16.389s19.522,6.586 22.987,16.389c0.93,2.633 3.247,4.531 6.011,4.926 2.766,0.397 5.52-0.78 7.15-3.047 4.69-6.526 11.926-10.268 19.852-10.268 13.509,0 24.5,10.99 24.5,24.5 0,0.961-0.163,2.056-0.352,3.323l-.041,.272c-0.426,2.874 0.846,5.734 3.265,7.344 2.418,1.609 5.549,1.678 8.035,0.174 3.966-2.397 8.202-3.613 12.593-3.613 13.509,0 24.5,10.99 24.5,24.5 0,7.11-3.207,13.896-8.798,18.619-2.52,2.128-3.353,5.651-2.055,8.683 1.298,3.032 4.42,4.857 7.704,4.503 0.42-0.046 0.836-0.102 1.253-0.158 0.556-0.075 1.081-0.146 1.396-0.146 13.509,0 24.5,10.99 24.5,24.5 0,8.881-4.94,17.085-12.892,21.412-2.413,1.313-3.916,3.841-3.916,6.588s1.502,5.274 3.916,6.588c7.952,4.326 12.892,12.53 12.892,21.411 0,11.499-8.161,21.572-19.404,23.951-2.034,0.431-3.797,1.686-4.871,3.465-1.073,1.78-1.36,3.925-0.791,5.924 0.727,2.559 1.066,4.675 1.066,6.66 0,13.51-10.991,24.5-24.5,24.5-1,0-1.988-0.081-2.969-0.199 1.612-7.804 2.469-15.911 2.469-24.231v-64.07c0-21.78-17.72-39.5-39.5-39.5h-16c-4.142,0-7.5,3.357-7.5,7.5s3.358,7.5 7.5,7.5h16c13.509,0 24.5,10.99 24.5,24.5v64.069c0,53.21-39.701,96.5-88.5,96.5s-88.5-43.29-88.5-96.5zm155.364,111.066l-66.864,40.119-66.861-40.118c5.76-5.998 8.323-12.539 9.46-18.333 16.437,11.847 36.182,18.766 57.401,18.766 21.22,0 40.966-6.919 57.404-18.768 1.137,5.794 3.7,12.336 9.46,18.334zm-187.364,105.365v-16.5c0-4.143-3.358-7.5-7.5-7.5s-7.5,3.357-7.5,7.5v16.5h-30.307c-5.796,0-10.693-3.86-10.693-8.431v-46.613c0-11.475 7.81-21.291 18.991-23.872l71.772-16.563 20.46,95.479h-55.223zm170.437,0h-99.874l-11.204-52.284 44.934,26.805c4.999,3 10.602,4.499 16.207,4.499 5.604,0 11.209-1.5 16.207-4.498l11.649-6.989c3.552-2.132 4.704-6.738 2.573-10.29s-6.738-4.705-10.29-2.573l-11.65,6.99c-5.236,3.14-11.742,3.141-16.995-0.011l-56.927-33.96-3.615-16.871 65.188,39.114c2.375,1.424 5.343,1.424 7.718,0l65.188-39.114-3.568,16.648-21.337,12.802c-3.552,2.131-4.704,6.737-2.572,10.289 1.406,2.345 3.89,3.643 6.438,3.643 1.313,0 2.644-0.345 3.852-1.07l9.318-5.591-11.24,52.461zm126.563-8.431c0,4.57-4.897,8.431-10.693,8.431h-30.307v-16.5c0-4.143-3.358-7.5-7.5-7.5s-7.5,3.357-7.5,7.5v16.5h-55.223l20.46-95.479 71.772,16.563c11.181,2.581 18.991,12.397 18.991,23.872v46.613z"/>
    <path d="m200,247.5c0,17.369 14.131,31.5 31.5,31.5s31.5-14.131 31.5-31.5c0-4.143-3.358-7.5-7.5-7.5s-7.5,3.357-7.5,7.5c0,9.098-7.402,16.5-16.5,16.5s-16.5-7.402-16.5-16.5 7.402-16.5 16.5-16.5c4.142,0 7.5-3.357 7.5-7.5s-3.358-7.5-7.5-7.5c-17.369,0-31.5,14.131-31.5,31.5z"/>
    <path d="m231.5,311c35.014,0 63.5-24.897 63.5-55.5 0-4.143-3.358-7.5-7.5-7.5s-7.5,3.357-7.5,7.5c0,22.332-21.757,40.5-48.5,40.5s-48.5-18.168-48.5-40.5c0-4.143-3.358-7.5-7.5-7.5s-7.5,3.357-7.5,7.5c0,30.603 28.486,55.5 63.5,55.5z"/>
    <path d="m175.5,207h8.5v8.5c0,4.143 3.358,7.5 7.5,7.5s7.5-3.357 7.5-7.5v-8.5h8.5c4.142,0 7.5-3.357 7.5-7.5s-3.358-7.5-7.5-7.5h-8.5v-8.5c0-4.143-3.358-7.5-7.5-7.5s-7.5,3.357-7.5,7.5v8.5h-8.5c-4.142,0-7.5,3.357-7.5,7.5s3.358,7.5 7.5,7.5z"/>
    <path d="m255.5,207h8.5v8.5c0,4.143 3.358,7.5 7.5,7.5s7.5-3.357 7.5-7.5v-8.5h8.5c4.142,0 7.5-3.357 7.5-7.5s-3.358-7.5-7.5-7.5h-8.5v-8.5c0-4.143-3.358-7.5-7.5-7.5s-7.5,3.357-7.5,7.5v8.5h-8.5c-4.142,0-7.5,3.357-7.5,7.5s3.358,7.5 7.5,7.5z"/>
  </g>
</svg>
