<?xml version='1.0' encoding='iso-8859-1'?>
<svg version="1.1" xmlns="http://www.w3.org/2000/svg" viewBox="0 0 463 463" xmlns:xlink="http://www.w3.org/1999/xlink" enable-background="new 0 0 463 463">
  <g>
    <path d="m424.195,137.193c-6.28-3.35-13.768-2.107-18.628,3.1l-85.373,91.471-76.195-103.902c-2.951-4.025-7.507-6.334-12.499-6.334s-9.548,2.309-12.499,6.334l-76.195,103.902-85.373-91.471c-4.859-5.206-12.344-6.451-18.628-3.1-6.282,3.352-9.416,10.264-7.798,17.198l47.463,203.416c-8.489,3.546-14.47,11.933-14.47,21.693 0,12.958 10.542,23.5 23.5,23.5h288c12.958,0 23.5-10.542 23.5-23.5 0-9.76-5.981-18.147-14.47-21.693l47.463-203.416c1.618-6.934-1.515-13.846-7.798-17.198zm-6.809,13.789l-47.837,205.018h-34.047c-4.143,0-7.5,3.358-7.5,7.5s3.357,7.5 7.5,7.5h39.979c0.009,0 0.017,0.001 0.026,0.001 0.003,0 0.005-0.001 0.008-0.001 4.68,0.008 8.485,3.817 8.485,8.499 0,4.687-3.813,8.5-8.5,8.5h-288c-4.687,0-8.5-3.813-8.5-8.5s3.813-8.5 8.5-8.5h168.003c4.143,0 7.5-3.358 7.5-7.5s-3.357-7.5-7.5-7.5h-162.052l-47.837-205.017c-0.062-0.265-0.087-0.374 0.251-0.555 0.343-0.182 0.416-0.098 0.602,0.1l91.55,98.09c1.524,1.633 3.696,2.504 5.927,2.37 2.229-0.132 4.284-1.25 5.604-3.052l81.549-111.203c0.049-0.066 0.15-0.204 0.403-0.204s0.354,0.138 0.403,0.204l81.549,111.203c1.32,1.801 3.375,2.92 5.604,3.052 2.23,0.136 4.402-0.737 5.927-2.37l91.551-98.09c0.184-0.198 0.259-0.282 0.601-0.1 0.338,0.181 0.312,0.29 0.251,0.555z"/>
    <path d="M47,99.5C47,86.542,36.458,76,23.5,76S0,86.542,0,99.5S10.542,123,23.5,123S47,112.458,47,99.5z M23.5,108   c-4.687,0-8.5-3.813-8.5-8.5s3.813-8.5,8.5-8.5s8.5,3.813,8.5,8.5S28.187,108,23.5,108z"/>
    <path d="m439.5,76c-12.958,0-23.5,10.542-23.5,23.5s10.542,23.5 23.5,23.5 23.5-10.542 23.5-23.5-10.542-23.5-23.5-23.5zm0,32c-4.687,0-8.5-3.813-8.5-8.5s3.813-8.5 8.5-8.5 8.5,3.813 8.5,8.5-3.813,8.5-8.5,8.5z"/>
    <path d="m231.5,107c12.958,0 23.5-10.542 23.5-23.5s-10.542-23.5-23.5-23.5-23.5,10.542-23.5,23.5 10.542,23.5 23.5,23.5zm0-32c4.687,0 8.5,3.813 8.5,8.5s-3.813,8.5-8.5,8.5-8.5-3.813-8.5-8.5 3.813-8.5 8.5-8.5z"/>
    <path d="m303.501,356h-16.004c-4.143,0-7.5,3.358-7.5,7.5s3.357,7.5 7.5,7.5h16.004c4.143,0 7.5-3.358 7.5-7.5s-3.357-7.5-7.5-7.5z"/>
    <path d="m374.211,228.199c-4.032-0.94-8.066,1.565-9.008,5.6l-3.733,16c-0.941,4.034 1.565,8.067 5.6,9.008 0.573,0.134 1.146,0.198 1.711,0.198 3.406,0 6.489-2.337 7.297-5.797l3.733-16c0.941-4.035-1.566-8.068-5.6-9.009z"/>
    <path d="m287.493,261.458c1.539,0 3.093-0.473 4.43-1.453 3.34-2.449 4.063-7.143 1.612-10.483l-31.134-42.455c-2.45-3.34-7.142-4.063-10.483-1.613-3.34,2.449-4.062,7.143-1.612,10.483l31.134,42.455c1.469,2.005 3.746,3.066 6.053,3.066z"/>
    <path d="m363.011,276.197c-4.033-0.942-8.066,1.565-9.008,5.6l-11.199,48c-0.941,4.034 1.565,8.067 5.6,9.008 0.573,0.134 1.146,0.198 1.711,0.198 3.406,0 6.489-2.337 7.297-5.797l11.199-48c0.941-4.035-1.566-8.068-5.6-9.009z"/>
    <path d="m95.387,227.857c-2.826-3.028-7.571-3.192-10.601-0.366-3.028,2.826-3.192,7.572-0.365,10.6l21.596,23.139c1.478,1.583 3.479,2.383 5.485,2.383 1.832,0 3.67-0.668 5.115-2.017 3.028-2.826 3.192-7.572 0.366-10.6l-21.596-23.139z"/>
    <path d="m237.548,173.177c-2.45-3.339-7.142-4.062-10.483-1.612-3.34,2.449-4.062,7.143-1.612,10.483l8.004,10.914c1.47,2.003 3.746,3.065 6.054,3.065 1.539,0 3.093-0.473 4.43-1.453 3.34-2.449 4.062-7.143 1.612-10.483l-8.005-10.914z"/>
  </g>
</svg>
