<?xml version='1.0' encoding='iso-8859-1'?>
<svg version="1.1" xmlns="http://www.w3.org/2000/svg" viewBox="0 0 463 463" xmlns:xlink="http://www.w3.org/1999/xlink" enable-background="new 0 0 463 463">
  <g>
    <path d="m317.706,75.289c-17.209-25.36-14.59-58.808-14.563-59.131 0.306-3.465-1.812-6.686-5.114-7.778l-24.173-8c-2.396-0.792-5.03-0.309-7.009,1.26-1.979,1.566-3.036,4.044-2.815,6.559 0.126,1.433 2.554,34.164-32.532,61.919-35.086-27.755-32.659-60.485-32.536-61.88 0.249-2.526-0.796-5.008-2.778-6.594-1.983-1.587-4.633-2.062-7.042-1.264l-24.173,8c-3.303,1.093-5.42,4.313-5.114,7.778 0.029,0.334 2.738,33.635-14.563,59.131-1.465,2.158-1.702,4.926-0.627,7.303 0.223,0.494 21.333,47.61 23.199,87.435-4.69,2.668-7.866,7.703-7.866,13.474v8c0,3.947 1.495,7.542 3.933,10.282-6.726,9.105-12.607,21.926-14.048,50.718-1.906,38.077 3.873,102.916 18.189,204.051 0.523,3.699 3.689,6.449 7.426,6.449h112c3.736,0 6.902-2.75 7.426-6.449 14.316-101.135 20.096-165.974 18.189-204.051-1.441-28.792-7.322-41.613-14.048-50.718 2.438-2.74 3.933-6.335 3.933-10.282v-8c0-5.771-3.176-10.806-7.866-13.474 1.866-39.824 22.976-86.941 23.199-87.435 1.075-2.377 0.838-5.144-0.627-7.303zm-36.723,372.711h-98.965c-28.062-200.314-17.398-223.917-3.068-241h105.101c14.33,17.084 24.993,40.686-3.068,241zm-.764-280h-8.721c-4.143,0-7.5,3.357-7.5,7.5s3.357,7.5 7.5,7.5h16.002c0.275,0 0.5,0.225 0.5,0.5v8c0,0.275-0.225,0.5-0.5,0.5h-112c-0.275,0-0.5-0.225-0.5-0.5v-8c0-0.275 0.225-0.5 0.5-0.5h63.999c4.143,0 7.5-3.357 7.5-7.5s-3.357-7.5-7.5-7.5h-56.718c-2.016-36.057-17.614-75.549-22.807-87.817 13.61-22.372 15.146-47.92 15.06-59.333l9.3-3.077c1.701,15.39 9.579,44.042 42.801,67.826 2.611,1.869 6.121,1.869 8.732,0 33.222-23.784 41.1-52.437 42.801-67.826l9.3,3.077c-0.086,11.413 1.449,36.961 15.06,59.333-5.195,12.269-20.793,51.76-22.809,87.817z"/>
    <path d="m266.174,254.843l.048,.999c0.183,4.022 3.5,7.16 7.486,7.16 0.114,0 0.23-0.003 0.346-0.008 4.138-0.188 7.34-3.694 7.152-7.832l-.051-1.062c-0.32-6.398-0.804-11.562-1.478-15.782-0.654-4.09-4.487-6.869-8.59-6.223-4.09,0.653-6.876,4.499-6.223,8.59 0.589,3.681 1.018,8.314 1.31,14.158z"/>
    <path d="m273.825,280.003c-4.1-0.193-7.64,3.029-7.818,7.168-0.982,22.618-3.593,52.041-7.757,87.453-0.484,4.113 2.458,7.841 6.572,8.324 0.298,0.035 0.593,0.053 0.886,0.053 3.75,0 6.99-2.809 7.438-6.625 4.208-35.775 6.848-65.57 7.847-88.555 0.18-4.137-3.029-7.638-7.168-7.818z"/>
  </g>
</svg>
