<?xml version='1.0' encoding='iso-8859-1'?>
<svg version="1.1" xmlns="http://www.w3.org/2000/svg" viewBox="0 0 463 463" xmlns:xlink="http://www.w3.org/1999/xlink" enable-background="new 0 0 463 463">
  <g>
    <path d="m463,7.5c0-2.415-1.162-4.681-3.123-6.09-1.96-1.409-4.48-1.788-6.768-1.019-0.226,0.076-23.438,7.609-93.609,7.609-51.299,0-92.273,17.141-121.784,50.948-1.535,1.758-3.801,2.766-6.216,2.766s-4.681-1.008-6.216-2.766c-29.512-33.807-70.486-50.948-121.784-50.948-69.396,0-93.412-7.545-93.609-7.609-2.289-0.769-4.808-0.391-6.768,1.019-1.961,1.409-3.123,3.675-3.123,6.09 0,34.511 2.537,85.229 24.476,127.038 10.708,20.407 25.333,37.361 43.467,50.394 20.029,14.394 44.985,24.467 74.175,29.94 48.437,9.082 69.399,26.65 77.583,36.314 2.96,3.495 7.26,5.5 11.799,5.5 4.539,0 8.84-2.005 11.8-5.5 8.184-9.664 29.146-27.232 77.583-36.314 29.19-5.473 54.146-15.546 74.175-29.94 1.681-1.208 3.322-2.462 4.943-3.737v274.305c0,4.142 3.358,7.5 7.5,7.5s7.5-3.358 7.5-7.5v-287.967c9.199-9.682 17.076-20.707 23.524-32.995 10.506-20.024 24.475-54.979 24.475-127.038zm-144.882,192.628c-50.34,9.439-74.696,27.703-86.264,41.363-0.228,0.268-0.479,0.268-0.706,0-11.568-13.66-35.924-31.924-86.265-41.363-51.533-9.663-86.574-33.397-107.124-72.56-9.311-17.742-21.544-48.278-22.675-110.603 13.076,2.485 40.195,6.035 88.416,6.035 46.775,0 83.947,15.414 110.484,45.812 4.383,5.021 10.767,7.901 17.515,7.902 6.748,0 13.133-2.88 17.516-7.902 26.538-30.398 63.71-45.812 110.485-45.812 48.235,0 75.356-3.553 88.428-6.038-0.515,32.269-4.165,75.308-22.687,110.606-20.55,39.163-55.59,62.898-107.123,72.56z"/>
    <path d="m390.723,81.231c0.632-2.259 0.17-4.685-1.248-6.554s-3.629-2.967-5.975-2.967h-21.794c-33.023,0-57.086,9.496-73.564,29.029-9.103,10.79-15.866,26.292-18.092,41.468-0.319,2.176 0.333,4.382 1.783,6.035 1.425,1.625 3.48,2.554 5.638,2.554 0.038,0 0.076,0 0.114-0.001 5.561-0.085 11.032-0.096 15.643-0.096l12.479,.011c21.577,0 39.787-5.981 54.123-17.778 14.161-11.654 24.556-29.049 30.893-51.701zm-85.011,54.479l-12.479-.011c-2.029,0-4.222,0.002-6.517,0.012 3.773-13.663 10.583-22.565 12.889-25.299 13.454-15.948 33.767-23.701 62.1-23.701h11.53c-11.958,32.946-34.13,48.999-67.523,48.999z"/>
    <path d="m169.767,150.699c4.618,0 10.089,0.011 15.65,0.096 0.038,0 0.076,0.001 0.114,0.001 2.157,0 4.212-0.929 5.638-2.554 1.45-1.653 2.102-3.859 1.783-6.035-2.226-15.178-8.99-30.68-18.092-41.468-16.478-19.534-40.541-29.029-73.564-29.029h-21.796c-2.346,0-4.557,1.098-5.975,2.967s-1.88,4.294-1.248,6.554c6.337,22.652 16.731,40.047 30.895,51.702 14.336,11.796 32.546,17.778 54.129,17.778l12.466-.012zm-80.003-63.989h11.531c28.333,0 48.646,7.753 62.099,23.702 2.307,2.734 9.116,11.635 12.889,25.299-2.296-0.009-4.491-0.012-6.523-0.012l-12.465,.011c-33.4,2.84217e-14-55.572-16.053-67.531-49z"/>
    <path d="m343.485,55.736c0.237,0 0.476-0.011 0.717-0.034 4.915-0.466 10.061-0.702 15.298-0.702 4.142,0 7.5-3.358 7.5-7.5s-3.358-7.5-7.5-7.5c-5.708,0-11.331,0.259-16.714,0.77-4.124,0.391-7.149,4.051-6.758,8.174 0.368,3.883 3.634,6.792 7.457,6.792z"/>
    <path d="m149.927,62.532c5.597,2.053 10.957,4.561 15.932,7.453 1.186,0.689 2.483,1.018 3.763,1.018 2.584,0 5.099-1.337 6.491-3.732 2.082-3.581 0.867-8.171-2.714-10.253-5.729-3.331-11.888-6.213-18.304-8.567-3.889-1.427-8.198,0.568-9.625,4.458-1.427,3.887 0.569,8.196 4.457,9.623z"/>
    <path d="m231.5,108.714c15.99,0 31.161-6.873 41.623-18.857 11.011-12.614 24.771-21.922 40.898-27.667 3.902-1.39 5.938-5.68 4.548-9.582-1.39-3.901-5.679-5.939-9.582-4.548-18.576,6.617-34.444,17.36-47.165,31.933-7.613,8.72-18.665,13.722-30.323,13.722s-22.71-5.001-30.323-13.722c-2.723-3.12-7.462-3.442-10.582-0.718-3.121,2.724-3.442,7.461-0.718,10.582 10.462,11.984 25.633,18.857 41.624,18.857z"/>
    <path d="m49.503,53.275c16.086,1.145 34.201,1.725 53.997,1.725 5.237,0 10.384,0.236 15.298,0.702 4.111,0.389 7.783-2.634 8.174-6.758 0.391-4.124-2.635-7.783-6.758-8.174-5.382-0.511-11.006-0.77-16.714-0.77-23.108,0-43.83-0.8-61.596-2.378-0.265-0.029-0.534-0.043-0.805-0.043-0.901,0.018-1.717,0.147-2.504,0.426-1.102,0.388-2.077,1.022-2.868,1.832-0.749,0.765-1.337,1.692-1.706,2.731-0.28,0.787-0.432,1.631-0.432,2.504 0,0.286 0.015,0.568 0.046,0.846 4.304,46.557 17.59,80.133 40.617,102.64 1.459,1.426 3.351,2.137 5.242,2.137 1.948,0 3.895-0.754 5.364-2.258 2.896-2.962 2.841-7.71-0.121-10.605-19.241-18.809-30.532-45.82-35.234-84.557z"/>
    <path d="m427.22,39.783c-1.571-1.576-3.761-2.374-5.977-2.174-9.193,0.819-19.294,1.437-30.024,1.835-4.139,0.153-7.37,3.634-7.216,7.773 0.153,4.139 3.62,7.395 7.773,7.216 7.566-0.281 14.836-0.669 21.715-1.158-4.149,33.889-13.575,59.298-28.709,77.489-16.124,19.379-39.859,31.781-72.563,37.913-4.071,0.763-6.752,4.683-5.989,8.754 0.676,3.604 3.825,6.119 7.363,6.119 0.458,0 0.923-0.042 1.391-0.13 36.277-6.802 62.879-20.888 81.329-43.062 18.434-22.156 29.249-53.098 33.064-94.592 0.205-2.216-0.585-4.408-2.157-5.983z"/>
    <path d="m277.149,177.572c-17.434,5.747-32.762,13.1-45.648,21.891-20.973-14.321-48.095-24.669-80.721-30.786-13.781-2.584-25.627-6.149-36.218-10.9-3.779-1.695-8.217-0.006-9.913,3.773-1.696,3.779-0.006,8.217 3.773,9.913 11.684,5.241 24.635,9.153 39.593,11.958 32.739,6.138 59.324,16.659 79.016,31.27 1.327,0.984 2.898,1.477 4.469,1.477s3.142-0.492 4.469-1.477c12.47-9.252 27.905-16.947 45.877-22.871 3.934-1.297 6.072-5.537 4.775-9.471s-5.536-6.073-9.472-4.777z"/>
  </g>
</svg>
