<?xml version='1.0' encoding='iso-8859-1'?>
<svg version="1.1" xmlns="http://www.w3.org/2000/svg" viewBox="0 0 463.001 463.001" xmlns:xlink="http://www.w3.org/1999/xlink" enable-background="new 0 0 463.001 463.001">
  <path d="m278.208,76.147l-34.211-68.423c-2.382-4.765-7.17-7.724-12.497-7.724s-10.114,2.959-12.496,7.724l-34.212,68.423c-1.163,2.325-1.038,5.086 0.328,7.297 1.366,2.211 3.78,3.557 6.38,3.557h0.5v40.495c0,0.003 0,0.007 0,0.01v39.99c0,0.003 0,0.007 0,0.01v39.99c0,0.003 0,0.007 0,0.01v15.995c0,5.827 3.235,10.908 8,13.555v18.445c0,5.827 3.235,10.908 8,13.555v74.445c0,4.142 3.357,7.5 7.5,7.5s7.5-3.358 7.5-7.5v-72.5h17v184.5c0,4.142 3.357,7.5 7.5,7.5s7.5-3.358 7.5-7.5v-186.445c4.765-2.647 8-7.728 8-13.555v-18.445c4.765-2.647 8-7.728 8-13.555v-39.995c0-0.003 0-0.007 0-0.01v-39.99c0-0.003 0-0.007 0-0.01v-39.99c0-0.003 0-0.007 0-0.01v-16.495h0.5c2.6,0 5.014-1.346 6.38-3.557 1.367-2.211 1.492-4.972 0.328-7.297zm-46.708-59.875l27.864,55.729h-55.729l27.865-55.729zm-2.106,70.729l-22.394,22.393v-22.393h22.394zm26.606,136.5c0,0.276-0.225,0.5-0.5,0.5h-21.893l22.393-22.393v21.893zm-8,15.5v16.5c0,0.276-0.225,0.5-0.5,0.5h-32c-0.275,0-0.5-0.224-0.5-0.5v-16.5h33zm8-138.607l-13.804,13.804c-2.929,2.929-2.929,7.678 0,10.606 1.465,1.464 3.385,2.197 5.304,2.197s3.839-0.732 5.304-2.197l3.196-3.196v18.786l-13.804,13.804c-2.929,2.929-2.929,7.678 0,10.606 1.465,1.464 3.385,2.197 5.304,2.197s3.839-0.732 5.304-2.197l3.196-3.196v18.786l-43.607,43.607h-4.893c-0.275,0-0.5-0.224-0.5-0.5v-12.893l21.804-21.804c2.929-2.929 2.929-7.678 0-10.606-2.93-2.929-7.678-2.929-10.607,0l-11.197,11.196v-18.786l21.804-21.804c2.929-2.929 2.929-7.678 0-10.606-2.93-2.929-7.678-2.929-10.607,0l-11.197,11.196v-18.786l43.607-43.607h5.393v13.393z"/>
</svg>
