<?xml version='1.0' encoding='iso-8859-1'?>
<svg version="1.1" xmlns="http://www.w3.org/2000/svg" viewBox="0 0 463 463" xmlns:xlink="http://www.w3.org/1999/xlink" enable-background="new 0 0 463 463">
  <g>
    <path d="m407.5,128h-141.114c31.54-14.567 75.942-36.152 86.702-46.913 18.521-18.52 18.521-48.655 0-67.175-8.972-8.971-20.9-13.912-33.588-13.912-12.688,0-24.616,4.941-33.587,13.913-12.83,12.83-41.05,73.49-54.413,103.142-13.362-29.652-41.583-90.312-54.413-103.142-8.971-8.972-20.899-13.913-33.587-13.913-12.688,0-24.616,4.941-33.587,13.913-18.521,18.52-18.521,48.655 0,67.175 10.76,10.76 55.162,32.345 86.702,46.913h-141.115c-17.369-0.001-31.5,14.13-31.5,31.499v56c0,4.142 3.358,7.5 7.5,7.5h8.5v208.5c0,17.369 14.131,31.5 31.5,31.5h320c17.369,0 31.5-14.131 31.5-31.5v-208.5h8.5c4.142,0 7.5-3.358 7.5-7.5v-56c0-17.369-14.131-31.5-31.5-31.5zm-200.5,80v-19.455c3.23-1.569 6.372-3.475 9.381-5.78 6.644-5.09 11.58-11.33 15.119-17.91 3.539,6.58 8.475,12.821 15.119,17.91 3.009,2.305 6.151,4.211 9.381,5.78v19.455h-49zm16.341-65c-1.612,9.591-6.391,20.434-16.082,27.858-0.084,0.064-0.175,0.12-0.259,0.183v-28.041h16.341zm32.4,27.858c-9.691-7.424-14.47-18.267-16.082-27.858h16.341v28.041c-0.084-0.064-0.175-0.119-0.259-0.183zm40.778-146.339c6.139-6.139 14.3-9.519 22.981-9.519 8.681,0 16.843,3.38 22.981,9.519 12.671,12.672 12.671,33.29 0,45.962-9.237,9.237-57.483,32.715-96.212,50.23 27.395-60.89 44.874-90.815 50.25-96.192zm-176-0c6.139-6.139 14.3-9.519 22.981-9.519 8.681,0 16.843,3.38 22.981,9.519 9.237,9.237 32.715,57.483 50.23,96.212-60.89-27.396-90.816-44.874-96.192-50.25-12.671-12.672-12.671-33.29 1.42109e-14-45.962zm-81.519,134.981c0-9.098 7.402-16.5 16.5-16.5h136.5v35.066c-10.776,2.739-23.801,2.17-38.547-1.807-4-1.078-8.116,1.29-9.194,5.289-1.079,3.999 1.289,8.116 5.289,9.194 8.281,2.233 18.078,4.022 28.213,4.022 4.713,0 9.499-0.396 14.24-1.305v14.541h-153.001v-48.5zm369,272c0,9.098-7.402,16.5-16.5,16.5h-120.5v-152.5c0-4.142-3.358-7.5-7.5-7.5s-7.5,3.358-7.5,7.5v152.5h-49v-152.5c0-4.142-3.358-7.5-7.5-7.5s-7.5,3.358-7.5,7.5v152.5h-120.5c-9.098,0-16.5-7.402-16.5-16.5v-208.5h353v208.5zm16-223.5h-153v-14.541c4.741,0.909 9.526,1.305 14.24,1.305 10.133,0 19.933-1.789 28.213-4.022 4-1.078 6.367-5.195 5.289-9.194s-5.195-6.369-9.194-5.289c-14.747,3.977-27.772,4.545-38.547,1.806v-35.065h136.5c9.098,0 16.5,7.402 16.5,16.5v48.5z"/>
    <path d="m199.5,240c-4.142,0-7.5,3.358-7.5,7.5v15.998c0,4.142 3.358,7.5 7.5,7.5s7.5-3.358 7.5-7.5v-15.998c0-4.142-3.358-7.5-7.5-7.5z"/>
    <path d="m256,247.5v15.998c0,4.142 3.358,7.5 7.5,7.5s7.5-3.358 7.5-7.5v-15.998c0-4.142-3.358-7.5-7.5-7.5s-7.5,3.358-7.5,7.5z"/>
  </g>
</svg>
