<?xml version='1.0' encoding='iso-8859-1'?>
<svg version="1.1" xmlns="http://www.w3.org/2000/svg" viewBox="0 0 462.782 462.782" xmlns:xlink="http://www.w3.org/1999/xlink" enable-background="new 0 0 462.782 462.782">
  <g>
    <path d="m449.918,100.755l-28.874-34.649c-2.651-3.182-7.38-3.613-10.563-0.96-3.182,2.652-3.611,7.381-0.96,10.563l28.874,34.649c6.054,7.265 9.388,16.473 9.388,25.928v127.122h-13.209c-8.215-18.813-26.99-32-48.795-32-14.175,0-27.519,5.516-37.576,15.538-2.472,2.469-6.494,2.468-8.972-0.005-10.054-10.017-23.396-15.533-37.57-15.533-21.88,0-40.712,13.275-48.882,32.191-5.688-5.011-13.141-8.004-21.215-8.004-8.003,0-15.439,2.984-21.135,7.973-8.177-18.9-27-32.161-48.868-32.161-14.175,0-27.518,5.516-37.578,15.539-2.47,2.466-6.49,2.468-8.97-0.006-10.054-10.017-23.396-15.533-37.571-15.533-21.805,0-40.581,13.187-48.795,32h-13.647v-127.122c0-9.456 3.334-18.664 9.387-25.928l28.875-34.649c2.651-3.182 2.222-7.911-0.96-10.563-3.181-2.65-7.91-2.221-10.563,0.96l-28.875,34.649c-8.296,9.955-12.864,22.574-12.864,35.531v150.622c0,12.958 10.542,23.5 23.5,23.5h6.07c4.313,10.977 11.787,23.924 24.349,38.561 17.114,19.941 39.763,38.01 62.138,49.571 1.08,0.558 2.262,0.837 3.443,0.837s2.363-0.279 3.443-0.837c22.375-11.562 45.023-29.63 62.138-49.571 24.549-28.603 29.701-50.775 29.701-64.338 0-0.045-0.003-0.09-0.003-0.135 0.011-0.05 0.027-0.097 0.037-0.147 1.564-7.969 8.607-13.753 16.747-13.753 8.291,0 15.358,5.912 16.804,14.057 0.02,0.113 0.05,0.221 0.074,0.332 0.088,13.593 5.358,35.625 29.696,63.984 17.114,19.941 39.763,38.009 62.138,49.571 1.08,0.558 2.262,0.837 3.443,0.837s2.363-0.279 3.443-0.837c22.375-11.562 45.023-29.63 62.138-49.571 12.562-14.636 20.037-27.584 24.349-38.561h5.634c12.958,0 23.5-10.542 23.5-23.5v-150.622c5.68434e-14-12.957-4.568-25.575-12.864-35.53zm-426.418,194.652c-4.687,0-8.5-3.813-8.5-8.5v-8.5h9.594c-0.239,2.043-0.376,4.117-0.376,6.223 0,3.139 0.282,6.744 1.01,10.777h-1.728zm96,87.979c-48.177-26.213-80.282-71.713-80.282-98.757 0-21.076 17.146-38.223 38.223-38.223 10.179,0 19.762,3.963 26.979,11.153 8.317,8.303 21.847,8.303 30.154,0.005 7.224-7.196 16.807-11.159 26.985-11.159 21.076,0 38.223,17.146 38.223,38.223-2.84217e-14,27.045-32.105,72.545-80.282,98.758zm224.218,0c-48.176-26.213-80.281-71.713-80.281-98.757 0-21.076 17.146-38.223 38.223-38.223 10.178,0 19.761,3.963 26.979,11.153 8.315,8.302 21.847,8.302 30.156,0.005 7.222-7.196 16.805-11.159 26.983-11.159 21.076,0 38.223,17.146 38.223,38.223-0.001,27.045-32.106,72.545-80.283,98.758zm95.564-87.979h-1.292c0.728-4.034 1.01-7.639 1.01-10.777 0-2.106-0.137-4.18-0.376-6.223h9.158v8.5c-5.68434e-14,4.687-3.813,8.5-8.5,8.5z"/>
    <path d="m171.359,299.774c-3.552-2.129-8.159-0.978-10.289,2.575-9.645,16.082-27.169,33.772-45.735,46.168-3.444,2.3-4.372,6.957-2.072,10.402 1.445,2.166 3.822,3.336 6.244,3.336 1.431,0 2.878-0.409 4.158-1.264 20.602-13.755 39.394-32.794 50.269-50.928 2.13-3.552 0.977-8.159-2.575-10.289z"/>
    <path d="m161.56,263.407c-4.143,0-7.5,3.358-7.5,7.5s3.357,7.5 7.5,7.5c2.421,0 4.643,1.429 5.66,3.64 1.265,2.748 3.979,4.367 6.818,4.367 1.049,0 2.114-0.221 3.13-0.688 3.763-1.731 5.41-6.186 3.679-9.948-3.458-7.516-11.029-12.371-19.287-12.371z"/>
    <path d="m395.359,299.774c-3.552-2.129-8.159-0.978-10.289,2.575-9.645,16.082-27.169,33.772-45.735,46.168-3.444,2.3-4.372,6.957-2.072,10.402 1.445,2.166 3.822,3.336 6.244,3.336 1.431,0 2.878-0.409 4.158-1.264 20.602-13.755 39.394-32.794 50.269-50.928 2.13-3.552 0.977-8.159-2.575-10.289z"/>
    <path d="m385.56,263.407c-4.143,0-7.5,3.358-7.5,7.5s3.357,7.5 7.5,7.5c2.421,0 4.643,1.429 5.66,3.64 1.265,2.748 3.979,4.367 6.818,4.367 1.049,0 2.114-0.221 3.13-0.688 3.763-1.731 5.41-6.186 3.679-9.948-3.458-7.516-11.029-12.371-19.287-12.371z"/>
  </g>
</svg>
