<?xml version='1.0' encoding='iso-8859-1'?>
<svg version="1.1" xmlns="http://www.w3.org/2000/svg" viewBox="0 0 463 463" xmlns:xlink="http://www.w3.org/1999/xlink" enable-background="new 0 0 463 463">
  <g>
    <path d="m399.5,416h-3.126l-150.71-339.098c-1.424-3.203-3.772-5.721-6.664-7.308v-17.104l16.463,9.505c1.181,0.682 2.471,1.006 3.743,1.006 2.592,0 5.113-1.346 6.502-3.751 2.071-3.587 0.842-8.174-2.745-10.245l-16.463-9.505 16.463-9.505c3.587-2.071 4.816-6.658 2.745-10.245-2.071-3.588-6.658-4.816-10.245-2.745l-16.463,9.505v-19.01c0-4.142-3.358-7.5-7.5-7.5s-7.5,3.358-7.5,7.5v19.01l-16.463-9.505c-3.588-2.072-8.174-0.842-10.245,2.745-2.071,3.587-0.842,8.174 2.745,10.245l16.463,9.505-16.463,9.505c-3.587,2.071-4.816,6.658-2.745,10.245 1.389,2.406 3.91,3.751 6.502,3.751 1.272,0 2.562-0.324 3.743-1.006l16.463-9.505v17.104c-2.892,1.587-5.24,4.105-6.664,7.308l-150.71,339.098h-3.126c-12.958,0-23.5,10.542-23.5,23.5s10.542,23.5 23.5,23.5h336c12.958,0 23.5-10.542 23.5-23.5s-10.542-23.5-23.5-23.5zm-168.457-333.005c0.065-0.146 0.132-0.297 0.457-0.297s0.392,0.151 0.457,0.297l6.219,13.992-16.021,6.008 8.888-20zm168.457,365.005h-336c-4.687,0-8.5-3.813-8.5-8.5s3.813-8.5 8.5-8.5h7.855c0.006,0 0.012,0 0.017,0h0.103c0.009,0 0.017,0.002 0.026,0.002 0.015,0 0.029-0.002 0.044-0.002h263.953c4.142,0 7.5-3.358 7.5-7.5s-3.358-7.5-7.5-7.5h-51.972l30.606-11.477c3.878-1.455 5.844-5.777 4.389-9.656-1.454-3.879-5.778-5.843-9.656-4.389l-68.058,25.522h-127.947l129.271-48.477c3.878-1.455 5.844-5.777 4.389-9.656-1.454-3.879-5.779-5.843-9.656-4.389l-151.243,56.717 25.589-57.576 106.919-40.094c3.878-1.455 5.844-5.777 4.389-9.656-1.455-3.879-5.779-5.843-9.656-4.389l-93.108,34.915 25.59-57.576 56.456-21.171c3.878-1.455 5.844-5.777 4.389-9.656-1.454-3.879-5.78-5.843-9.656-4.389l-42.646,15.992 59.723-134.376 30.668-11.5 18.278,41.126-12.94,4.853c-3.878,1.455-5.844,5.777-4.389,9.656 1.129,3.011 3.987,4.869 7.023,4.869 0.875,0 1.765-0.154 2.632-0.479l13.776-5.166 18.278,41.126-18.067,6.775c-3.878,1.455-5.844,5.777-4.389,9.656 1.129,3.011 3.987,4.869 7.023,4.869 0.875,0 1.765-0.154 2.632-0.479l18.903-7.089 18.278,41.126-18.446,6.917c-3.878,1.455-5.844,5.777-4.389,9.656 1.129,3.011 3.987,4.869 7.023,4.869 0.875,0 1.765-0.154 2.632-0.479l19.282-7.231 18.278,41.126-21.833,8.187c-3.878,1.455-5.844,5.777-4.389,9.656 1.129,3.011 3.987,4.869 7.023,4.869 0.875,0 1.765-0.154 2.632-0.479l22.669-8.501 18.278,41.126-19.212,7.205c-3.878,1.455-5.844,5.777-4.389,9.656 1.129,3.011 3.987,4.869 7.023,4.869 0.875,0 1.765-0.154 2.632-0.479l20.049-7.518 13.78,30.989h-12.459c-4.142,0-7.5,3.358-7.5,7.5s3.358,7.5 7.5,7.5h23.977c0.009,0 0.018,0.002 0.027,0.002 0.013,0 0.025-0.002 0.038-0.002h7.958c4.687,0 8.5,3.813 8.5,8.5s-3.813,8.5-8.5,8.5z"/>
    <path d="m281.533,336.728l-12.667,4.75c-3.878,1.455-5.843,5.778-4.389,9.656 1.129,3.011 3.987,4.868 7.023,4.868 0.875,0 1.765-0.154 2.633-0.479l12.667-4.75c3.878-1.455 5.843-5.778 4.389-9.656s-5.778-5.843-9.656-4.389z"/>
    <path d="m270.52,284.868c-1.455-3.879-5.778-5.843-9.656-4.389l-12.747,4.78c-3.878,1.455-5.844,5.777-4.389,9.656 1.129,3.011 3.987,4.869 7.023,4.869 0.875,0 1.765-0.154 2.632-0.479l12.747-4.78c3.879-1.456 5.844-5.779 4.39-9.657z"/>
    <path d="m249.185,228.868c-1.455-3.879-5.779-5.843-9.656-4.389l-11.829,4.436c-3.878,1.455-5.844,5.777-4.389,9.656 1.129,3.011 3.987,4.869 7.023,4.869 0.875,0 1.765-0.154 2.632-0.479l11.829-4.436c3.879-1.456 5.845-5.778 4.39-9.657z"/>
    <path d="m230.521,171.867c-1.455-3.879-5.78-5.843-9.656-4.389l-10.999,4.125c-3.878,1.455-5.844,5.777-4.389,9.656 1.129,3.011 3.987,4.869 7.023,4.869 0.875,0 1.765-0.154 2.632-0.479l10.999-4.125c3.879-1.456 5.845-5.778 4.39-9.657z"/>
  </g>
</svg>
