<?xml version='1.0' encoding='iso-8859-1'?>
<svg version="1.1" xmlns="http://www.w3.org/2000/svg" viewBox="0 0 463 463" xmlns:xlink="http://www.w3.org/1999/xlink" enable-background="new 0 0 463 463">
  <g>
    <path d="m349.961,86.067c-2.824-8.69-10.552-14.306-19.69-14.306h-56.269c-2.479,0-4.658-1.584-5.424-3.941l-17.388-53.514c-2.824-8.691-10.553-14.306-19.69-14.306s-16.866,5.615-19.69,14.306l-17.388,53.515c-0.766,2.357-2.946,3.941-5.424,3.941h-56.269c-9.138,0-16.866,5.615-19.69,14.306s0.128,17.776 7.521,23.147l45.522,33.074c2.005,1.457 2.838,4.02 2.072,6.376l-17.388,53.515c-2.824,8.69 0.128,17.776 7.521,23.147 7.392,5.37 16.945,5.37 24.338,0l41.375-30.06v260.233c0,4.142 3.358,7.5 7.5,7.5s7.5-3.358 7.5-7.5v-260.233l41.375,30.061c3.696,2.686 7.932,4.028 12.169,4.028 4.236,0 8.474-1.343 12.169-4.028 7.392-5.371 10.344-14.457 7.521-23.147l-17.388-53.515c-0.766-2.357 0.067-4.92 2.072-6.377l45.522-33.074c7.393-5.371 10.345-14.457 7.521-23.148zm-16.337,11.012l-45.522,33.074c-7.279,5.289-10.301,14.591-7.521,23.147l17.388,53.515c1.188,3.657-1.286,5.805-2.072,6.376-0.787,0.571-3.594,2.259-6.705,0l-45.522-33.073c-7.28-5.29-17.061-5.288-24.338,0l-45.522,33.074c-3.111,2.261-5.918,0.571-6.705,0-0.786-0.571-3.26-2.72-2.072-6.376l17.387-53.516c2.78-8.557-0.242-17.859-7.521-23.147l-45.523-33.073c-3.11-2.26-2.372-5.452-2.072-6.377 0.301-0.924 1.58-3.941 5.424-3.941h56.269c8.997,0 16.91-5.749 19.69-14.306l17.388-53.515c1.189-3.657 4.453-3.941 5.425-3.941s4.236,0.284 5.424,3.941l17.388,53.514c2.78,8.557 10.693,14.306 19.69,14.306h56.269c3.845,0 5.124,3.017 5.424,3.941 0.301,0.925 1.039,4.117-2.071,6.377z"/>
    <path d="m238.553,78.901c-1.408-3.896-5.709-5.912-9.603-4.503-3.896,1.408-5.912,5.708-4.503,9.603 2.184,6.041 5.401,11.563 9.562,16.415 1.483,1.729 3.583,2.617 5.696,2.617 1.728,0 3.465-0.594 4.879-1.807 3.144-2.697 3.507-7.432 0.81-10.576-2.975-3.469-5.276-7.421-6.841-11.749z"/>
    <path d="m267.892,105.317c-11.735,9.128-19.097,22.843-20.198,37.628-0.466,6.26 0.187,12.507 1.938,18.569 0.949,3.284 3.946,5.419 7.202,5.419 0.689,0 1.391-0.096 2.086-0.297 3.979-1.15 6.272-5.308 5.123-9.288-1.255-4.343-1.723-8.814-1.39-13.291 0.787-10.566 6.053-20.371 14.449-26.902 3.27-2.543 3.858-7.255 1.315-10.525-2.542-3.268-7.255-3.857-10.525-1.313z"/>
  </g>
</svg>
