<?xml version='1.0' encoding='iso-8859-1'?>
<svg version="1.1" xmlns="http://www.w3.org/2000/svg" viewBox="0 0 463 463" xmlns:xlink="http://www.w3.org/1999/xlink" enable-background="new 0 0 463 463">
  <g>
    <path d="M456.63,53.949c-3.988-2.907-9.175-3.742-13.873-2.23L16.309,188.791C6.554,191.927,0,200.918,0,211.164v40.673   c0,10.247,6.554,19.237,16.309,22.373L80,294.681v40.237c0,17.223,11.017,32.335,27.413,37.605l106.448,34.215   c3.214,1.033,6.491,1.542,9.737,1.542c6.544,0,12.958-2.067,18.457-6.076C250.282,396.209,255,386.93,255,376.75v-25.819   l187.757,60.35h-0.001c1.544,0.496,3.139,0.739,4.728,0.739c3.249,0,6.468-1.018,9.146-2.97c3.989-2.908,6.37-7.59,6.37-12.526   V66.475C463,61.539,460.619,56.857,456.63,53.949z M240,376.75c0,5.333-2.472,10.192-6.78,13.334   c-4.311,3.141-9.691,4.006-14.769,2.375l-106.448-34.215C101.833,354.974,95,345.601,95,334.919v-35.416l145,46.607V376.75z    M448,396.526c0,0.083,0,0.254-0.205,0.404c-0.205,0.148-0.369,0.097-0.448,0.072L20.898,259.929   C17.37,258.795,15,255.543,15,251.837v-40.673c0-3.706,2.371-6.958,5.898-8.093L447.347,65.999c0.037-0.012,0.094-0.03,0.163-0.03   c0.079,0,0.176,0.022,0.285,0.102C448,66.22,448,66.392,448,66.475V396.526z"/>
    <path d="m265.239,304.854l-16.704-5.369c-3.941-1.267-8.168,0.901-9.436,4.845-1.267,3.943 0.902,8.168 4.846,9.435l16.704,5.369c0.763,0.245 1.536,0.362 2.297,0.362 3.17,0 6.116-2.027 7.139-5.207 1.267-3.943-0.902-8.168-4.846-9.435z"/>
    <path d="m216.798,289.284l-118.788-38.182c-3.941-1.268-8.168,0.901-9.436,4.845-1.268,3.943 0.902,8.167 4.846,9.435l118.788,38.182c0.763,0.245 1.536,0.362 2.297,0.362 3.17,0 6.116-2.026 7.139-5.207 1.267-3.943-0.903-8.167-4.846-9.435z"/>
    <path d="m421.205,92.259l-15.694,5.044c-3.943,1.268-6.112,5.492-4.846,9.435 1.022,3.181 3.969,5.207 7.139,5.207 0.761,0 1.534-0.117 2.297-0.362l15.694-5.044c3.943-1.268 6.113-5.492 4.846-9.435-1.268-3.944-5.495-6.111-9.436-4.845z"/>
    <path d="m374.802,107.174l-121.023,38.9c-3.943,1.268-6.113,5.492-4.846,9.435 1.022,3.181 3.968,5.207 7.139,5.207 0.761,0 1.534-0.117 2.297-0.362l121.023-38.9c3.943-1.268 6.113-5.492 4.846-9.435-1.268-3.944-5.495-6.112-9.436-4.845z"/>
  </g>
</svg>
