<?xml version='1.0' encoding='iso-8859-1'?>
<svg version="1.1" xmlns="http://www.w3.org/2000/svg" viewBox="0 0 463.021 463.021" xmlns:xlink="http://www.w3.org/1999/xlink" enable-background="new 0 0 463.021 463.021">
  <g>
    <path d="m153.645,75.398l1.96-3.303c2.122-3.58 4.126-6.962 6.156-10.223 2.189-3.517 1.113-8.142-2.403-10.331-3.517-2.189-8.142-1.112-10.331,2.403-2.117,3.4-4.161,6.851-6.326,10.503l-1.946,3.278c-2.119,3.56-0.951,8.162 2.608,10.281 1.203,0.716 2.524,1.056 3.829,1.056 2.558,0.001 5.05-1.308 6.453-3.664z"/>
    <path d="m413.137,36.939c-4.142,0-7.5,3.358-7.5,7.5s3.358,7.5 7.5,7.5c6.787,0 12.319,5.421 12.527,12.158-1.103,8.159-5.151,10.29-8.585,11.214-16.522,4.446-52.166-14.062-68.102-35.365-14.94-19.971-33.13-33.066-52.605-37.871-16.681-4.117-33.484-2.067-47.31,5.768-7.22,4.092-13.227,10.258-17.551,17.671-4.324-7.413-10.331-13.579-17.551-17.671-13.827-7.836-30.629-9.884-47.31-5.768-19.475,4.805-37.665,17.9-52.605,37.871-15.937,21.304-51.576,39.815-68.103,35.365-3.434-0.924-7.482-3.054-8.585-11.214 0.208-6.738 5.74-12.158 12.527-12.158 4.142,0 7.5-3.358 7.5-7.5s-3.358-7.5-7.5-7.5c-15.189,0-27.547,12.358-27.547,27.547 0,23.986 14.24,44.894 39.069,57.362 15.774,7.921 34.909,12.053 55.158,12.053 5.71,0 11.512-0.329 17.349-0.994 28.887-3.292 56.836-14.473 80.827-32.335 7.06-5.256 12.704-11.616 16.77-18.709 4.066,7.093 9.71,13.453 16.77,18.709 23.99,17.862 51.939,29.043 80.827,32.335 5.838,0.666 11.637,0.994 17.349,0.994 4.585,0 9.109-0.223 13.555-0.643v322.262c0,4.142 3.358,7.5 7.5,7.5s7.5-3.358 7.5-7.5v-324.532c9.548-2.023 18.52-5.08 26.604-9.14 24.829-12.469 39.069-33.376 39.069-57.362-0.001-15.189-12.358-27.547-27.547-27.547zm-295.973,81.941c5.601-3.622 10.912-8.234 15.96-13.896 2.756-3.092 2.485-7.833-0.607-10.589-3.091-2.756-7.832-2.485-10.589,0.607-11.839,13.278-24.676,19.229-40.408,18.71-0.074-0.002-0.146,0.005-0.219,0.004-4.736-1.485-9.146-3.256-13.162-5.272-9.497-4.769-16.953-10.826-22.15-17.858 24.916,3.404 63.089-18.958 80.066-41.654 26.733-35.734 59.698-39.831 80.509-28.038 3.86,2.187 7.217,5.28 9.936,8.996-11.126-4.511-24.001-4.13-35.318-0.421-3.936,1.291-6.081,5.527-4.791,9.463 1.29,3.936 5.527,6.077 9.463,4.791 18.067-5.924 30.109,0.359 36.312,9.383-2.377-1.086-4.966-1.825-7.731-2.172-9.552-1.202-20.427,2.544-26.454,9.105-6.184,6.732-10.529,16.311-14.73,25.574-5.472,12.064-11.131,24.539-19.817,28.383-0.037,0.016-0.07,0.037-0.106,0.054-12.437,3.298-24.653,4.804-36.164,4.83zm88.619-30.338c-7.975,5.938-16.152,10.879-24.391,14.947 1.942-3.809 3.741-7.76 5.519-11.68 3.886-8.566 7.556-16.657 12.117-21.623 2.457-2.675 8.192-5.041 13.538-4.37 3.51,0.441 6.035,2.081 7.726,4.978-3.075,6.797-7.98,12.886-14.509,17.748zm36.946-17.747c1.69-2.897 4.216-4.537 7.726-4.978 5.347-0.67 11.08,1.695 13.538,4.37 4.562,4.966 8.231,13.057 12.117,21.623 1.778,3.92 3.577,7.871 5.519,11.68-8.239-4.069-16.416-9.01-24.391-14.948-6.529-4.862-11.434-10.951-14.509-17.747zm152.154,37.649c-4.016,2.017-8.427,3.788-13.164,5.273-0.073,0-0.144-0.007-0.218-0.005-15.726,0.515-28.569-5.432-40.408-18.71-2.757-3.092-7.498-3.363-10.589-0.607-3.092,2.757-3.363,7.498-0.607,10.589 5.048,5.661 10.359,10.273 15.96,13.896-11.511-0.026-23.727-1.532-36.163-4.83-0.036-0.017-0.07-0.038-0.106-0.054-8.687-3.845-14.345-16.319-19.817-28.383-4.202-9.263-8.546-18.841-14.73-25.574-6.026-6.561-16.9-10.308-26.454-9.105-2.765,0.347-5.354,1.086-7.731,2.172 6.203-9.024 18.244-15.308 36.312-9.383 3.935,1.289 8.173-0.854 9.463-4.791 1.29-3.936-0.854-8.173-4.791-9.463-11.315-3.709-24.192-4.089-35.319,0.422 2.719-3.716 6.077-6.81 9.937-8.998 6.666-3.777 14.575-5.924 23.131-5.924 18.155,0 39.208,9.673 57.378,33.962 16.979,22.697 55.146,45.056 80.066,41.654-5.197,7.033-12.653,13.09-22.15,17.859z"/>
    <path d="m320.33,64.464c-2.168-3.659-4.216-7.114-6.336-10.52-2.189-3.516-6.814-4.593-10.331-2.403-3.516,2.189-4.592,6.814-2.403,10.331 2.034,3.266 4.041,6.653 6.167,10.239l1.95,3.287c1.403,2.356 3.895,3.665 6.452,3.665 1.304,0 2.626-0.341 3.829-1.056 3.559-2.119 4.727-6.722 2.608-10.281l-1.936-3.262z"/>
  </g>
</svg>
