<?xml version='1.0' encoding='iso-8859-1'?>
<svg version="1.1" xmlns="http://www.w3.org/2000/svg" viewBox="0 0 462.929 462.929" xmlns:xlink="http://www.w3.org/1999/xlink" enable-background="new 0 0 462.929 462.929">
  <g>
    <path d="m446.708,153.233c-15.922-24.263-42.679-41.443-71.574-45.957-27.23-4.253-54.015,2.934-75.413,20.24-19.18,15.514-30.921,38.466-32.212,62.972-1.28,24.292 7.445,47.1 24.569,64.224 14.125,14.126 32.906,21.904 52.881,21.904 19.976,0 38.757-7.779 52.882-21.904 6.527-6.527 11.388-14.219 14.448-22.863 1.382-3.905-0.663-8.19-4.568-9.573-3.902-1.383-8.19,0.663-9.573,4.568-2.308,6.52-5.979,12.327-10.914,17.261-11.292,11.292-26.306,17.511-42.275,17.511-15.969,0-30.983-6.219-42.275-17.511-14.078-14.078-21.25-32.839-20.197-52.828 1.068-20.266 10.788-39.255 26.666-52.098 18.062-14.609 40.676-20.673 63.665-17.083 24.778,3.871 47.712,18.587 61.348,39.366 17.993,27.418 18.422,65.875 1.094,97.974-17.295,32.037-47.483,50.411-82.823,50.411h-185.437v-24.5c0-2.119-0.896-4.139-2.467-5.561-1.571-1.421-3.672-2.114-5.779-1.902l-72.795,7.28c-5.556,0.555-10.15,3.96-12.422,8.683h-42.037c-2.361,0-4.583,1.111-6,3l-24,32c-1.705,2.272-1.979,5.313-0.708,7.854 1.27,2.541 3.867,4.146 6.708,4.146h66.037c2.272,4.723 6.866,8.128 12.421,8.684l72.796,7.279c0.249,0.025 0.498,0.037 0.747,0.037 1.851,0 3.647-0.686 5.032-1.939 1.571-1.422 2.467-3.442 2.467-5.561v-24.5h185.437c40.423,0 76.32-21.789 96.022-58.285 19.912-36.882 19.224-81.366-1.751-113.329zm-411.458,155.615h36.75v17h-49.5l12.75-17zm116.75,32.212l-64.549-6.455c-0.257-0.025-0.451-0.24-0.451-0.498v-33.521c0-0.258 0.193-0.472 0.45-0.497l64.55-6.455v47.426z"/>
    <path d="m394.964,175.09c-3.435,2.315-4.343,6.976-2.028,10.411 2.845,4.222 4.958,8.861 6.281,13.789 0.899,3.35 3.929,5.558 7.239,5.558 0.644,0 1.298-0.083 1.949-0.258 4-1.073 6.374-5.187 5.3-9.188-1.753-6.532-4.555-12.684-8.329-18.284-2.315-3.434-6.977-4.343-10.412-2.028z"/>
    <path d="m373.144,169.924c3.935,1.282 8.171-0.869 9.455-4.807 1.284-3.938-0.869-8.171-4.807-9.455-18.207-5.935-37.925-1.215-51.458,12.319-16.356,16.356-16.356,42.97 0,59.327 6.835,6.835 15.813,10.252 24.792,10.252 8.978,0 17.957-3.417 24.792-10.252 11.521-11.521 11.521-30.267 0-41.788-9.802-9.801-25.75-9.801-35.551,0-2.929,2.929-2.929,7.678 0,10.606 2.929,2.929 7.678,2.929 10.606,0 3.953-3.953 10.385-3.953 14.338,0 5.672,5.672 5.672,14.902 0,20.575-7.821,7.822-20.548,7.822-28.37,0-10.508-10.508-10.508-27.606 0-38.114 9.518-9.519 23.391-12.839 36.203-8.663z"/>
  </g>
</svg>
