<?xml version='1.0' encoding='iso-8859-1'?>
<svg version="1.1" xmlns="http://www.w3.org/2000/svg" viewBox="0 0 463.001 463.001" xmlns:xlink="http://www.w3.org/1999/xlink" enable-background="new 0 0 463.001 463.001">
  <g>
    <path d="m447.5,80.001h-16.001c-4.142,0-7.5,3.358-7.5,7.5s3.358,7.5 7.5,7.5h16.001c4.142,0 7.5-3.358 7.5-7.5s-3.358-7.5-7.5-7.5z"/>
    <path d="m399.498,80.001h-166.857c36.064-6.58 77.428-16.025 121.085-29.589 3.956-1.229 6.166-5.432 4.937-9.387s-5.431-6.167-9.387-4.937c-113.38,35.225-210.93,42.281-238.276,43.617v-0.204c0-12.958-10.542-23.5-23.5-23.5s-23.5,10.542-23.5,23.5v32c0,4.142 3.358,7.5 7.5,7.5h8.5v9h-8.502c-1.305,0-2.588,0.341-3.721,0.988l-43.906,25.09c-9.79,5.595-15.871,16.074-15.871,27.35v250.072c0,17.369 14.131,31.5 31.5,31.5h96c17.369,0 31.5-14.131 31.5-31.5v-250.072c0-11.276-6.082-21.756-15.872-27.35l-43.909-25.09c-1.133-0.647-2.416-0.988-3.721-0.988h-8.498v-9h8.5c4.142,0 7.5-3.358 7.5-7.5v-16.206c27.329,1.328 124.792,8.362 238.276,43.619 0.741,0.23 1.49,0.34 2.228,0.34 3.198,0 6.161-2.062 7.16-5.277 1.229-3.956-0.981-8.158-4.937-9.387-43.658-13.564-85.022-23.009-121.086-29.589h166.858c4.142,0 7.5-3.358 7.5-7.5s-3.359-7.5-7.501-7.5zm-376.498,270.403c22.64-3.607 40-23.263 40-46.902 0-4.142-3.358-7.5-7.5-7.5s-7.5,3.358-7.5,7.5c0,15.339-10.685,28.221-25,31.617v-63.242c4.316,1.016 8.382,2.904 12,5.622 1.35,1.015 2.931,1.504 4.499,1.504 2.278,0 4.528-1.034 6.002-2.996 2.488-3.312 1.821-8.013-1.491-10.501-6.252-4.698-13.41-7.719-21.01-8.917v-17.137c32.043,3.73 57,31.023 57,64.05s-24.957,60.32-57,64.05v-17.148zm120.686-183.301c5.128,2.93 8.313,8.42 8.313,14.326v250.072c0,9.098-7.402,16.5-16.5,16.5h-96c-9.098,0-16.5-7.402-16.5-16.5v-48.864c40.331-3.793 72-37.83 72-79.136s-31.669-75.343-72-79.136v-42.936c0-5.906 3.186-11.396 8.313-14.326l42.176-24.102h28.017l42.181,24.102zm-47.686-63.102h-17v-24.5c0-4.687 3.813-8.5 8.5-8.5s8.5,3.813 8.5,8.5v24.5z"/>
    <path d="m431.502,21.848c0.959,0 1.935-0.186 2.876-0.577 5.407-2.248 10.838-4.571 16.143-6.905 3.791-1.668 5.512-6.094 3.844-9.886-1.668-3.791-6.096-5.511-9.886-3.844-5.21,2.293-10.546,4.575-15.858,6.784-3.825,1.59-5.637,5.979-4.046,9.804 1.198,2.885 3.988,4.624 6.927,4.624z"/>
    <path d="m383.502,40.189c0.822,0 1.658-0.136 2.478-0.423 5.396-1.889 10.821-3.844 16.124-5.811 3.884-1.44 5.864-5.756 4.424-9.64-1.44-3.884-5.759-5.866-9.64-4.424-5.216,1.935-10.554,3.858-15.864,5.717-3.909,1.368-5.969,5.647-4.601,9.557 1.082,3.09 3.98,5.024 7.079,5.024z"/>
    <path d="m450.52,160.637c-5.324-2.342-10.755-4.666-16.142-6.905-3.822-1.591-8.214,0.222-9.804,4.046s0.221,8.214 4.046,9.804c5.293,2.201 10.629,4.483 15.859,6.784 0.983,0.433 2.008,0.637 3.017,0.637 2.884,0 5.633-1.673 6.869-4.481 1.668-3.792-0.053-8.217-3.845-9.885z"/>
    <path d="m402.058,141.031c-5.252-1.948-10.639-3.89-16.012-5.771-3.909-1.37-8.188,0.691-9.557,4.601-1.369,3.909 0.691,8.188 4.6,9.557 5.286,1.851 10.585,3.761 15.751,5.677 0.86,0.319 1.741,0.47 2.607,0.47 3.046,0 5.911-1.87 7.033-4.894 1.442-3.884-0.539-8.2-4.422-9.64z"/>
    <path d="m127.5,207.001c4.142,0 7.5-3.358 7.5-7.5v-16c0-4.142-3.358-7.5-7.5-7.5-4.142,0-7.5,3.358-7.5,7.5v16c0,4.142 3.358,7.5 7.5,7.5z"/>
    <path d="m127.5,335.001c4.142,0 7.5-3.358 7.5-7.5v-96c0-4.142-3.358-7.5-7.5-7.5-4.142,0-7.5,3.358-7.5,7.5v96c0,4.142 3.358,7.5 7.5,7.5z"/>
  </g>
</svg>
