<?xml version='1.0' encoding='iso-8859-1'?>
<svg version="1.1" xmlns="http://www.w3.org/2000/svg" viewBox="0 0 463.001 463.001" xmlns:xlink="http://www.w3.org/1999/xlink" enable-background="new 0 0 463.001 463.001">
  <g>
    <path d="m231.5,31c4.143,0 7.5-3.358 7.5-7.5v-16c0-4.142-3.357-7.5-7.5-7.5s-7.5,3.358-7.5,7.5v16c0,4.142 3.357,7.5 7.5,7.5z"/>
    <path d="m231.5,103c4.143,0 7.5-3.358 7.5-7.5v-40c0-4.142-3.357-7.5-7.5-7.5s-7.5,3.358-7.5,7.5v40c0,4.143 3.357,7.5 7.5,7.5z"/>
    <path d="m383.5,136.001h-31.999c-4.143,0-7.5,3.358-7.5,7.5s3.357,7.5 7.5,7.5h31.999c4.143,0 7.5-3.358 7.5-7.5s-3.357-7.5-7.5-7.5z"/>
    <path d="m118.995,143.501c0-4.142-3.357-7.5-7.5-7.5h-31.995c-4.143,0-7.5,3.358-7.5,7.5s3.357,7.5 7.5,7.5h31.994c4.143,0 7.501-3.358 7.501-7.5z"/>
    <path d="m249.608,151.001h69.892c4.143,0 7.5-3.358 7.5-7.5s-3.357-7.5-7.5-7.5h-69.892l83.363-83.363c2.929-2.929 2.929-7.678 0-10.606-2.93-2.929-7.678-2.929-10.607,0l-90.863,90.863-90.863-90.863c-2.93-2.929-7.678-2.929-10.607,0-2.929,2.929-2.929,7.678 0,10.606l83.363,83.363h-69.894c-4.143,0-7.5,3.358-7.5,7.5s3.357,7.5 7.5,7.5h69.894l-83.363,83.363c-2.929,2.929-2.929,7.678 0,10.606 1.465,1.464 3.385,2.197 5.304,2.197s3.839-0.732 5.304-2.197l83.361-83.362v23.627c-9.29,3.138-16,11.93-16,22.266v160c0,10.336 6.71,19.128 16,22.266v65.734c0,4.142 3.357,7.5 7.5,7.5s7.5-3.358 7.5-7.5v-65.734c9.29-3.138 16-11.93 16-22.266v-160c0-10.336-6.71-19.128-16-22.266v-23.628l83.363,83.363c1.465,1.464 3.385,2.197 5.304,2.197s3.839-0.732 5.304-2.197c2.929-2.929 2.929-7.678 0-10.606l-83.363-83.363zm-9.608,216.5c0,4.687-3.813,8.5-8.5,8.5s-8.5-3.813-8.5-8.5v-160c0-4.687 3.813-8.5 8.5-8.5s8.5,3.813 8.5,8.5v160z"/>
    <path d="m201.383,90.389c1.196,2.888 3.988,4.632 6.932,4.632 0.956,0 1.929-0.184 2.867-0.573 3.827-1.585 5.645-5.973 4.059-9.799l-28.856-69.666c-1.585-3.827-5.972-5.645-9.799-4.059-3.827,1.585-5.645,5.973-4.059,9.799l28.856,69.666z"/>
    <path d="m278.199,236.642c-1.585-3.827-5.971-5.646-9.799-4.059-3.827,1.585-5.645,5.972-4.059,9.799l12.275,29.637c1.196,2.888 3.988,4.632 6.932,4.632 0.956,0 1.929-0.184 2.867-0.573 3.827-1.585 5.645-5.972 4.059-9.799l-12.275-29.637z"/>
    <path d="m272.569,126.49c1.196,2.888 3.988,4.632 6.932,4.632 0.956,0 1.929-0.184 2.867-0.573l77.65-32.164c3.827-1.585 5.645-5.973 4.059-9.799-1.585-3.826-5.972-5.645-9.799-4.059l-77.65,32.164c-3.828,1.585-5.645,5.973-4.059,9.799z"/>
    <path d="m190.43,160.513c-1.585-3.827-5.971-5.645-9.799-4.059l-77.648,32.163c-3.827,1.585-5.645,5.973-4.059,9.799 1.196,2.888 3.988,4.632 6.932,4.632 0.956,0 1.929-0.184 2.867-0.573l77.648-32.163c3.828-1.585 5.645-5.973 4.059-9.799z"/>
    <path d="m102.983,98.385l77.619,32.15c0.938,0.389 1.91,0.573 2.867,0.573 2.943,0 5.735-1.744 6.932-4.632 1.586-3.827-0.231-8.214-4.059-9.799l-77.619-32.15c-3.825-1.583-8.214,0.232-9.799,4.059-1.586,3.827 0.232,8.214 4.059,9.799z"/>
    <path d="m360.018,188.617l-77.694-32.182c-3.828-1.586-8.214,0.232-9.799,4.059-1.586,3.827 0.231,8.214 4.059,9.799l77.694,32.182c0.938,0.389 1.91,0.573 2.867,0.573 2.943,0 5.735-1.744 6.932-4.632 1.586-3.827-0.232-8.214-4.059-9.799z"/>
    <path d="m251.826,94.433c0.938,0.389 1.91,0.573 2.867,0.573 2.943,0 5.735-1.744 6.932-4.632l28.85-69.65c1.586-3.827-0.231-8.214-4.059-9.799-3.824-1.583-8.214,0.232-9.799,4.059l-28.85,69.65c-1.586,3.826 0.232,8.214 4.059,9.799z"/>
    <path d="m194.605,232.574c-3.824-1.583-8.214,0.232-9.799,4.059l-12.279,29.646c-1.586,3.827 0.231,8.214 4.059,9.799 0.938,0.389 1.91,0.573 2.867,0.573 2.943,0 5.735-1.744 6.932-4.632l12.279-29.646c1.586-3.827-0.232-8.214-4.059-9.799z"/>
  </g>
</svg>
