<?xml version='1.0' encoding='iso-8859-1'?>
<svg version="1.1" xmlns="http://www.w3.org/2000/svg" viewBox="0 0 462.782 462.782" xmlns:xlink="http://www.w3.org/1999/xlink" enable-background="new 0 0 462.782 462.782">
  <g>
    <path d="m449.918,109.239l-28.874-34.649c-2.65-3.182-7.381-3.613-10.563-0.96-3.182,2.652-3.611,7.381-0.96,10.563l28.874,34.649c6.054,7.265 9.388,16.473 9.388,25.928v127.122h-9v-8.5c0-8.547-6.953-15.5-15.5-15.5h-160c-8.547,0-15.5,6.953-15.5,15.5v5.075c-4.782-2.799-10.337-4.387-16.22-4.387-6.095,0-11.86,1.733-16.78,4.761v-5.448c0-8.547-6.953-15.5-15.5-15.5h-160c-8.547,0-15.5,6.953-15.5,15.5v8.5h-8.783v-127.123c0-9.456 3.334-18.664 9.387-25.928l28.875-34.649c2.651-3.182 2.222-7.911-0.96-10.563-3.182-2.65-7.91-2.221-10.563,0.96l-28.875,34.649c-8.296,9.955-12.864,22.573-12.864,35.531v150.622c0,12.958 10.542,23.5 23.5,23.5h0.282v6.559c0,8.414 3.276,16.325 9.226,22.274l36.285,36.285c4.439,4.438 10.34,6.883 16.616,6.883h66.745c6.276,0 12.178-2.444 16.618-6.883l36.284-36.285c5.949-5.95 9.226-13.86 9.226-22.273v-32.485c0.01-0.045 0.024-0.088 0.033-0.133 1.564-7.969 8.607-13.753 16.747-13.753 7.494,0 13.973,4.837 16.22,11.781v34.591c0,8.414 3.276,16.325 9.226,22.274l36.285,36.285c4.439,4.438 10.34,6.883 16.616,6.883h66.745c6.276,0 12.178-2.444 16.618-6.883l36.284-36.285c5.949-5.95 9.226-13.86 9.226-22.273v-6.559h0.5c12.958,0 23.5-10.542 23.5-23.5v-150.625c0-12.957-4.568-25.576-12.864-35.531zm-426.418,194.652c-4.687,0-8.5-3.813-8.5-8.5v-8.5h8.782v17h-0.282zm135.166,69.51c-1.606,1.606-3.741,2.49-6.012,2.49h-66.745c-2.27,0-4.404-0.884-6.01-2.49l-14.51-14.51h37.89c4.143,0 7.5-3.358 7.5-7.5s-3.357-7.5-7.5-7.5h-52.89l-6.774-6.774c-2.775-2.774-4.43-6.363-4.763-10.226h64.431c4.143,0 7.5-3.358 7.5-7.5s-3.357-7.5-7.5-7.5h-64.308c0.011-0.166 0.025-0.331 0.025-0.5 0-0.609-0.081-1.199-0.218-1.766v-14.734h64.501c4.143,0 7.5-3.358 7.5-7.5s-3.357-7.5-7.5-7.5h-64.308c0.011-0.166 0.025-0.331 0.025-0.5 0-0.609-0.081-1.199-0.218-1.766v-14.234c0-0.276 0.225-0.5 0.5-0.5h160c0.275,0 0.5,0.224 0.5,0.5v16.5h-16.5c-4.143,0-7.5,3.358-7.5,7.5s3.357,7.5 7.5,7.5h16.5v17h-16.5c-4.143,0-7.5,3.358-7.5,7.5s3.357,7.5 7.5,7.5h16.43c-0.333,3.863-1.989,7.452-4.763,10.226l-36.283,36.284zm224,0c-1.606,1.606-3.741,2.49-6.012,2.49h-66.745c-2.27,0-4.404-0.884-6.01-2.49l-14.51-14.51h37.89c4.143,0 7.5-3.358 7.5-7.5s-3.357-7.5-7.5-7.5h-52.89l-6.774-6.774c-2.775-2.774-4.43-6.363-4.763-10.226h64.431c4.143,0 7.5-3.358 7.5-7.5s-3.357-7.5-7.5-7.5h-64.501v-17h64.501c4.143,0 7.5-3.358 7.5-7.5s-3.357-7.5-7.5-7.5h-64.501v-16.5c0-0.276 0.225-0.5 0.5-0.5h160c0.275,0 0.5,0.224 0.5,0.5v16.5h-16.5c-4.143,0-7.5,3.358-7.5,7.5s3.357,7.5 7.5,7.5h16.5v17h-16.5c-4.143,0-7.5,3.358-7.5,7.5s3.357,7.5 7.5,7.5h16.43c-0.333,3.863-1.989,7.452-4.763,10.226l-36.283,36.284zm56.616-69.51h-0.5v-17h9v8.5c0,4.687-3.813,8.5-8.5,8.5z"/>
    <path d="m135.282,294.891h15.997c4.143,0 7.5-3.358 7.5-7.5s-3.357-7.5-7.5-7.5h-15.997c-4.143,0-7.5,3.358-7.5,7.5s3.358,7.5 7.5,7.5z"/>
    <path d="m135.282,326.891h15.997c4.143,0 7.5-3.358 7.5-7.5s-3.357-7.5-7.5-7.5h-15.997c-4.143,0-7.5,3.358-7.5,7.5s3.358,7.5 7.5,7.5z"/>
    <path d="m151.283,343.891h-16.001c-4.143,0-7.5,3.358-7.5,7.5s3.357,7.5 7.5,7.5h16.001c4.143,0 7.5-3.358 7.5-7.5s-3.357-7.5-7.5-7.5z"/>
    <path d="m359.282,294.891h15.997c4.143,0 7.5-3.358 7.5-7.5s-3.357-7.5-7.5-7.5h-15.997c-4.143,0-7.5,3.358-7.5,7.5s3.358,7.5 7.5,7.5z"/>
    <path d="m359.282,326.891h15.997c4.143,0 7.5-3.358 7.5-7.5s-3.357-7.5-7.5-7.5h-15.997c-4.143,0-7.5,3.358-7.5,7.5s3.358,7.5 7.5,7.5z"/>
    <path d="m375.283,343.891h-16.001c-4.143,0-7.5,3.358-7.5,7.5s3.357,7.5 7.5,7.5h16.001c4.143,0 7.5-3.358 7.5-7.5s-3.357-7.5-7.5-7.5z"/>
  </g>
</svg>
